<svg width="45" height="42" viewBox="0 0 45 42" fill="none" xmlns="http://www.w3.org/2000/svg">
<path d="M44.6994 4.20831C44.6994 4.19992 44.6994 4.18732 44.6994 4.17892C44.6994 4.17052 44.6952 4.16632 44.6952 4.15793C44.6868 4.10754 44.6699 4.06135 44.6489 4.01516C44.6489 4.01096 44.6446 4.00676 44.6446 4.00256C44.6194 3.95217 44.5857 3.91018 44.5478 3.87239C44.5351 3.85979 44.5225 3.85139 44.5141 3.843C44.4973 3.8262 44.4804 3.8094 44.4593 3.79681C44.4467 3.78841 44.4299 3.78421 44.4172 3.77581C44.4004 3.76741 44.3877 3.75901 44.3709 3.75062C44.3288 3.73382 44.2867 3.72122 44.2446 3.71282C44.2361 3.71282 44.2277 3.70443 44.2193 3.70443L29.8582 1.91982L29.8455 1.89043L29.7824 1.91142L22.5344 1.00862C22.4628 1.00022 22.3913 1.00442 22.3197 1.02542L20.9551 1.39913L19.3169 0.126813C19.14 -0.0201548 18.8957 -0.036951 18.702 0.0638268L12.0226 3.02418V3.02837C11.9258 3.07876 11.8457 3.15435 11.791 3.25093L11.3825 4.00256L9.68525 4.46446H9.68104C9.62629 4.48126 9.57997 4.50225 9.52943 4.53584C9.51679 4.54424 9.50837 4.55264 9.49574 4.56104C9.4831 4.56944 9.47047 4.57363 9.46204 4.58623C9.43256 4.61563 9.40308 4.64502 9.37782 4.67861C9.37782 4.67861 9.37782 4.67861 9.37782 4.68281C9.34834 4.729 9.32307 4.77519 9.30622 4.82558C9.30201 4.83818 9.2978 4.85077 9.29359 4.86337C9.28095 4.91376 9.27253 4.96415 9.27253 5.01874V5.03133L9.35255 7.72714L7.83221 10.5237C7.83221 10.5237 7.8322 10.5279 7.82799 10.5279L4.0124 17.5446V17.5488L0.0662602 24.8048C-0.0516609 25.0231 -0.00954624 25.2961 0.171547 25.4682L17.3333 41.8446C17.4386 41.9454 17.5733 42 17.7165 42C17.7418 42 17.7671 42 17.7923 41.9958C17.8555 41.9874 17.9187 41.9622 17.9734 41.9328V41.937L24.6528 37.4986V37.4944C24.7412 37.4482 24.8213 37.3768 24.876 37.2802L27.0197 34.026L33.5264 35.5922C33.5685 35.6048 33.6148 35.609 33.6569 35.609C33.7117 35.609 33.7706 35.5964 33.8212 35.5796C33.838 35.5754 33.8507 35.567 33.8675 35.5586C33.8928 35.5502 33.9138 35.5418 33.9349 35.5292L44.0382 29.6085C44.2067 29.5119 44.3077 29.3314 44.3119 29.1382L44.6826 4.2671C44.7036 4.24611 44.6994 4.22511 44.6994 4.20831ZM29.8919 3.04097L35.2025 3.70023L32.5998 4.729L27.1165 3.96057L29.8919 3.04097ZM32.1366 22.9404L27.8198 25.2541L31.4459 19.0395L35.6953 16.7594L32.1366 22.9404ZM27.9546 30.1964L23.5073 32.6403L26.7459 27.0891L31.0837 24.7628L27.9546 30.1964ZM6.9478 30.3854L10.6328 23.9272L15.9688 28.6049L12.149 35.3487L6.9478 30.3854ZM11.1972 22.9404L14.7601 16.7006L20.2097 21.1222L16.5289 27.6182L11.1972 22.9404ZM8.50604 11.6323L13.8841 15.9951L10.3465 22.1972L5.21267 17.6957L8.50604 11.6323ZM12.4564 4.36368L17.9734 8.8231L14.44 15.0125L9.04511 10.6371L12.4564 4.36368ZM25.1203 4.80038L30.5068 5.55622L27.4998 6.74456L25.1203 4.80038ZM30.0056 10.2298L25.0487 13.1188L19.6917 8.78531L24.855 6.01812L30.0056 10.2298ZM26.7038 24.9602L21.6416 20.8535L25.1624 14.6388L30.3046 18.7959L26.7038 24.9602ZM20.7614 20.1396L15.316 15.7222L18.8494 9.53274L24.2822 13.925L20.7614 20.1396ZM21.0857 21.8318L26.1352 25.9301L22.2312 32.6193L17.3838 28.3698L21.0857 21.8318ZM31.0669 17.9813L25.9752 13.8662L30.9279 10.9814L36.1543 15.2561L31.0669 17.9813ZM29.8455 8.66353L33.1179 9.17162V11.3383L29.8455 8.66353ZM28.8895 7.39121L32.7388 5.87115L37.3757 6.52201L33.598 8.12185L28.8895 7.39121ZM22.505 2.12137L27.3229 2.72184L24.636 3.61205L23.461 3.44828L22.008 2.25994L22.505 2.12137ZM23.9242 5.25808L18.7568 8.02947L13.2945 3.61205L18.9042 1.21857L23.9242 5.25808ZM10.4138 5.6444L10.4728 5.68219L10.418 5.77877L10.4138 5.6444ZM4.66518 18.6951L9.78211 23.1797L6.11814 29.5959L1.25811 24.9602L4.66518 18.6951ZM12.9828 36.1423L16.8279 29.3524L21.6669 33.5934L17.607 40.5513L12.9828 36.1423ZM24.0042 36.5874L19.1863 40.0432L22.4165 34.5088L26.8849 32.0524L24.0042 36.5874ZM33.1137 34.3451L27.6093 33.0224L28.7632 31.0194L28.8432 30.9774L28.8179 30.9312L31.7955 25.7622L33.1137 26.0267V34.3451ZM32.3851 24.7418L32.9452 23.7676L32.9705 23.755L32.962 23.7382L33.1179 23.4695V24.8888L32.3851 24.7418ZM38.9044 31.3385L34.2297 34.0763V26.0939L38.9044 23.6332V31.3385ZM38.9044 22.3777L34.2297 24.8426V21.5379L37.6325 15.634C37.6325 15.6298 37.6325 15.6298 37.6368 15.6256C37.6494 15.6046 37.6536 15.5836 37.662 15.5668C37.6662 15.5542 37.6747 15.5374 37.6789 15.5248C37.6873 15.5038 37.6873 15.487 37.6915 15.466C37.6957 15.4492 37.6999 15.4366 37.6999 15.4198C37.6999 15.3989 37.6999 15.3821 37.6999 15.3611C37.6999 15.3443 37.6999 15.3275 37.6999 15.3107C37.6999 15.2897 37.6957 15.2729 37.6915 15.2561L38.9002 14.664V22.3777H38.9044ZM38.9044 13.4169L36.8787 14.4121L34.2297 12.2495V9.06245L34.3981 8.99106L38.9044 7.08048V13.4169ZM34.8319 5.04393L37.502 3.98996L42.0293 4.55264L41.5534 4.75419L39.3635 5.68219L34.8319 5.04393ZM43.2254 28.8107L40.0162 30.6919V23.0496L43.3349 21.2986L43.2254 28.8107ZM43.3559 20.0304L40.0162 21.7898V14.1097L43.4696 12.4175L43.3559 20.0304ZM43.4865 11.1704L40.0162 12.871V6.61019L43.5792 5.09852L43.4865 11.1704Z" fill="#2A4E63"/>
</svg>
